<?xml version="1.0" standalone="no"?>
<!DOCTYPE svg PUBLIC "-//W3C//DTD SVG 20010904//EN"
 "http://www.w3.org/TR/2001/REC-SVG-20010904/DTD/svg10.dtd">
<svg version="1.0" xmlns="http://www.w3.org/2000/svg"
 width="92.000000pt" height="66.000000pt" viewBox="0 0 92.000000 66.000000"
 preserveAspectRatio="xMidYMid meet">

<g transform="translate(0.000000,66.000000) scale(0.100000,-0.100000)"
fill="#000000" stroke="none">
<path d="M232 612 c5 -21 21 -52 35 -68 l25 -29 -21 32 c-12 17 -24 45 -27 62
-4 17 -10 34 -14 36 -4 3 -3 -12 2 -33z"/>
<path d="M464 604 c3 -9 6 -24 6 -34 0 -11 13 -35 30 -53 l30 -34 -22 -19
c-11 -11 -27 -34 -35 -53 -13 -29 -13 -36 0 -48 13 -13 14 -12 10 11 -4 18 4
38 26 68 l31 42 -24 25 c-24 26 -49 95 -38 105 3 3 0 6 -7 6 -8 0 -11 -6 -7
-16z"/>
<path d="M7 584 c7 -3 9 -13 6 -22 -3 -9 -3 -14 2 -10 4 4 15 2 23 -5 11 -9
11 -4 -2 16 -10 15 -23 27 -30 26 -7 0 -7 -2 1 -5z"/>
<path d="M709 583 c-1 -5 -1 -11 0 -15 0 -5 -3 -8 -7 -8 -10 0 0 -99 11 -117
5 -8 -2 -22 -20 -38 -23 -20 -25 -24 -10 -25 10 0 16 -3 14 -7 -3 -5 -1 -17 4
-28 6 -15 8 -10 8 21 1 28 6 44 16 48 14 5 14 9 -1 31 -13 20 -15 40 -11 85 3
33 3 60 1 60 -2 0 -5 -3 -5 -7z"/>
<path d="M50 526 c0 -2 8 -10 18 -17 15 -13 16 -12 3 4 -13 16 -21 21 -21 13z"/>
<path d="M177 512 c-15 -16 -14 -20 9 -47 18 -21 22 -24 14 -8 -5 12 -15 25
-21 28 -7 5 -4 14 7 26 9 10 15 19 12 19 -3 0 -12 -8 -21 -18z"/>
<path d="M654 508 l-19 -23 23 19 c21 18 27 26 19 26 -2 0 -12 -10 -23 -22z"/>
<path d="M30 515 c0 -5 5 -17 10 -25 5 -8 10 -10 10 -5 0 6 -5 17 -10 25 -5 8
-10 11 -10 5z"/>
<path d="M304 513 c4 -7 -1 -24 -10 -38 -17 -27 -15 -98 4 -117 6 -6 5 7 -1
31 -9 33 -8 47 7 77 13 29 14 39 5 48 -9 8 -10 8 -5 -1z"/>
<path d="M376 487 c3 -10 9 -15 12 -12 3 3 0 11 -7 18 -10 9 -11 8 -5 -6z"/>
<path d="M113 452 c-3 -48 12 -95 39 -118 19 -17 19 -15 -3 14 -22 31 -30 82
-18 121 2 7 0 15 -6 17 -5 2 -11 -13 -12 -34z"/>
<path d="M880 455 c-7 -8 -9 -15 -6 -15 4 0 -8 -19 -27 -42 -56 -70 -137 -194
-137 -210 0 -9 -6 -21 -14 -27 -18 -15 -28 -81 -14 -98 7 -9 7 -17 -2 -28 -32
-39 -474 9 -560 61 l-25 15 23 -20 c28 -24 63 -35 187 -55 278 -47 416 -39
390 21 -5 10 -7 23 -6 28 2 6 3 20 3 32 0 13 7 28 14 34 8 6 14 19 14 28 0 16
93 156 161 242 16 20 29 40 29 43 0 11 -18 6 -30 -9z"/>
<path d="M402 405 c0 -16 2 -22 5 -12 2 9 2 23 0 30 -3 6 -5 -1 -5 -18z"/>
<path d="M164 351 c21 -23 26 -26 26 -11 0 5 -10 15 -22 21 -23 12 -23 12 -4
-10z"/>
<path d="M350 361 c0 -6 5 -13 12 -17 6 -4 8 -3 4 4 -3 5 0 13 6 15 8 3 6 6
-4 6 -10 1 -18 -3 -18 -8z"/>
<path d="M493 334 c-7 -7 -9 -15 -4 -18 5 -3 14 1 20 8 15 18 0 28 -16 10z"/>
<path d="M554 318 l-19 -23 23 19 c12 11 22 21 22 23 0 8 -8 2 -26 -19z"/>
<path d="M338 323 c7 -3 16 -2 19 1 4 3 -2 6 -13 5 -11 0 -14 -3 -6 -6z"/>
<path d="M710 313 c0 -5 -11 -15 -25 -21 -29 -13 -34 -42 -7 -42 13 0 14 2 3
9 -11 7 -9 11 8 20 12 7 26 9 31 6 16 -10 20 12 5 25 -8 7 -15 8 -15 3z"/>
<path d="M245 279 c-39 -6 -39 -6 15 -9 30 -2 75 -5 100 -6 25 -2 65 -6 90 -9
33 -4 41 -3 29 5 -22 13 -183 27 -234 19z"/>
<path d="M120 232 c6 -13 14 -21 18 -18 3 4 -2 14 -12 24 -18 16 -18 16 -6 -6z"/>
<path d="M214 198 c-4 -6 2 -18 12 -26 18 -14 18 -14 -4 -9 -13 3 -20 1 -16
-5 4 -6 1 -14 -5 -18 -7 -4 36 -10 96 -13 59 -4 119 -10 133 -13 19 -4 22 -3
10 5 -12 8 -12 13 -2 23 6 6 12 16 12 22 0 6 -5 5 -12 -2 -13 -13 -54 -16 -61
-4 -2 4 -2 1 -1 -5 4 -14 -20 -16 -79 -7 -32 6 -37 10 -32 28 4 14 3 17 -3 8
-11 -16 -45 -4 -38 14 7 17 0 18 -10 2z m33 -54 c-3 -3 -12 -4 -19 -1 -8 3 -5
6 6 6 11 1 17 -2 13 -5z"/>
<path d="M573 155 c-3 -9 -3 -18 -1 -21 3 -3 8 4 11 16 6 23 -1 27 -10 5z"/>
<path d="M607 128 c-14 -15 -21 -16 -40 -7 -21 11 -21 10 -6 -6 19 -20 54 -13
63 12 9 22 4 23 -17 1z"/>
</g>
</svg>
